<svg id="Layer_1" data-name="Layer 1" xmlns="http://www.w3.org/2000/svg" viewBox="0 0 1200 1200"><path d="M232.9,849.46c53.27,0,96.61-55.9,96.61-124.61S286.17,600.23,232.9,600.23s-96.6,55.91-96.6,124.62,43.34,124.61,96.6,124.61Zm0-199.38c32,0,58,33.55,58,74.77s-26,74.77-58,74.77-58-33.56-58-74.77,26-74.77,58-74.77Zm0,0"/><path d="M967.1,600.23c-53.27,0-96.61,55.91-96.61,124.62s43.34,124.61,96.61,124.61,96.6-55.9,96.6-124.61-43.34-124.62-96.6-124.62Zm0,199.39c-32,0-58-33.56-58-74.77s26-74.77,58-74.77,58,33.55,58,74.77-26,74.77-58,74.77Zm0,0"/><rect x="155.62" y="899.31" width="154.57" height="49.85"/><rect x="889.81" y="899.31" width="154.57" height="49.85"/><path d="M1083,500.54c30.84,0,60-15.48,82.13-43.79,21.79-28.41,33.8-66,33.8-105.75,0-27.49-17.34-49.85-38.65-49.85h-148L971.69,126.52C954.43,52.07,902.39,2.08,842.28,2.08H357.72c-60.11,0-112.15,50-129.41,124.42L187.66,301.15H39.7c-21.31,0-38.65,22.36-38.65,49.85,0,39.78,12,77.34,34,106,22,28.11,51.14,43.59,82,43.59h24.26l-2.5,10.77C88.13,563.77,59,640.92,59,724.85V974.08c0,41.21,26,74.77,58,74.77h38.64v74.77c0,41.21,26,74.76,58,74.76H329.51c31.95,0,58-33.55,58-74.76v-74.77H812.53v74.77c0,41.21,26,74.76,58,74.76H986.42c32,0,58-33.55,58-74.76v-74.77H1083c32,0,58-33.56,58-74.77V724.85c0-83.93-29.11-161.08-79.71-213.54l-2.51-10.77ZM1160.3,351c0,26.56-8,51.7-22.47,70.51-14.75,18.81-34.23,29.18-54.81,29.18h-35.86L1024,351Zm-895-210.18c12.32-53.15,49.45-88.9,92.39-88.9H842.28c42.94,0,80.07,35.75,92.39,88.9l77.39,332.45a178.83,178.83,0,0,0-48.73-18.22L897,156.13c-6.92-32-29.83-54.36-55.7-54.36H754.57v49.85h86.75c8.59,0,16.21,7.37,18.51,18.07l62.3,281H277.87L340.2,169.54c2.27-10.55,9.87-17.92,18.48-17.92H715.92V101.77H358.68c-25.87,0-48.77,22.36-55.68,54.2L236.69,455.05A177.81,177.81,0,0,0,188,473.27ZM426.11,999H387.47V924.23c0-32.44,16.21-59.86,38.64-70.18Zm38.64-149.54H503.4V999H464.75Zm77.29,0h38.64V999H542ZM658,500.54H696.6v99.69H658Zm-38.64,99.69H396.56c-21.72,0-42.11-16.25-51.9-41.27l-22.57-58.42H619.32ZM754.57,799.62H735.25V650.08h38.64V802.45a74.06,74.06,0,0,0-19.32-2.83ZM735.25,600.23V500.54h38.64v99.69ZM696.6,650.08V799.62H658V650.08ZM619.32,849.46H658V999H619.32Zm77.28,0h38.65V999H696.6Zm77.29,4.91a53.37,53.37,0,0,1,9.7,5.24c17.84,13.23,28.94,38,28.94,64.62V999H773.89Zm38.64-353.83h65.38l-22.55,58.32c-8.44,21.58-24.67,36.54-42.85,40.35V500.54ZM117,450.69c-20.58,0-40.06-10.37-54.66-29C47.73,402.7,39.7,377.56,39.7,351H176.05l-23.21,99.69ZM97.66,974.08V724.85c0-71.11,25.35-136.51,69.59-179.48,25.14-24.42,55.2-39.55,86.71-43.69a152.52,152.52,0,0,1,17.59-1.14h7.37l31.23,80.76c16.3,41.79,50.24,68.78,86.41,68.78H619.32V799.62H445.43c-53.26,0-96.6,55.9-96.6,124.61V999H117c-10.66,0-19.32-11.2-19.32-24.92Zm251.17,149.54c0,13.72-8.66,24.92-19.32,24.92H213.58c-10.66,0-19.32-11.2-19.32-24.92v-74.77H348.83Zm656.91,0c0,13.72-8.66,24.92-19.32,24.92H870.49c-10.66,0-19.32-11.2-19.32-24.92v-74.77h154.57Zm96.6-398.77V974.08c0,13.72-8.66,24.92-19.32,24.92H851.17V924.23c0-39.36-14.58-76.22-38.64-99.5V649.23c32.67-4.09,62.41-29.71,77.38-68l31.17-80.65h7.37a154,154,0,0,1,17.35,1.1c31.75,4.16,61.81,19.28,87,43.71,44.24,43,69.59,108.39,69.59,179.5Zm0,0"/><path d="M644.29,358.31,760.21,208.78,787.53,244,671.61,393.56Zm0,0"/><path d="M528.37,358.31,644.28,208.78,671.6,244,555.69,393.56Zm0,0"/><path d="M412.44,358.3,528.36,208.78,555.69,244,439.76,393.56Zm0,0"/></svg>