<svg id="Layer_1" data-name="Layer 1" xmlns="http://www.w3.org/2000/svg" viewBox="0 0 1200 1200"><path d="M1138.1,715.31A57.73,57.73,0,0,0,1080.45,773v13.46c-26.15-6.89-52-14.17-77.44-21.89a245.5,245.5,0,0,0-56-143.41l-24.75-29.56a63,63,0,0,1-14.76-40.76c0-2.29.15-4.42.29-6.49a63.91,63.91,0,0,1,12.39-31.73l14-18.63a154.74,154.74,0,0,0-62.74-235l-40.88-17.51.06-6.53A230.53,230.53,0,0,0,600,4.24c-127.17,0-230.62,103.45-230.62,230.62v6.55L328.56,258.9C285.32,277.38,253.5,315.07,241,359.41L119.55,264v-9.88A57.73,57.73,0,0,0,61.9,196.42H4.24V503.91H61.9a57.68,57.68,0,0,0,57.56-56.61L252.85,552.14l2,1.58c10.35,8.06,20.84,16.07,31.35,24.07a63.28,63.28,0,0,1-8.42,13.74L252.94,621.2a245.37,245.37,0,0,0-56.52,156.38,242.59,242.59,0,0,0,25.85,109.06l2.79,5.63a62.37,62.37,0,0,0-41.15,58.46,53.8,53.8,0,0,0,.58,9.06L210.43,1142a63.09,63.09,0,0,0,62.1,53.77H927.47A63.06,63.06,0,0,0,989.55,1142l25.93-182a63,63,0,0,0,0-16.91q31.53,9.19,65,17.78v4.34a57.73,57.73,0,0,0,57.65,57.66h57.66V715.31ZM917.5,645.7a207.11,207.11,0,0,1,45.83,106.18c-44.6-14.3-89.05-30-132.71-47.18V651.12a58,58,0,0,1,16.85-40.8l27.08-27.08a102,102,0,0,0,18.2,32.94Zm9.21-244.61a114.88,114.88,0,0,1-23.24,69.74l-14.05,18.7a102.49,102.49,0,0,0-18.46,43l-50.67,50.66a96.76,96.76,0,0,0-28.11,68v38.11a2195.38,2195.38,0,0,1-290.6-146.88H723a77.26,77.26,0,0,0,76.11-66.11l27.79-194.62,29.42,12.6a116.14,116.14,0,0,1,70.4,106.87ZM457.29,498.37A38.69,38.69,0,0,1,439,470.83l-.77-5.36H761.81l-.77,5.36a38.62,38.62,0,0,1-38,33.08H477a38.34,38.34,0,0,1-19.72-5.54ZM767.3,427H432.7l-5.47-38.44H772.79Zm11-76.87H421.74l-11-76.88H789.24ZM600,42.68A192,192,0,0,1,792.18,234.86H407.82c0-106,86.21-192.18,192.18-192.18ZM343.69,294.22l29.6-12.68L400.9,476.22c.12.77.45,1.45.58,2.22-43-29-84.87-59.51-124.86-91l-2-1.59c5.28-40.15,31.46-75.52,69.09-91.6Zm-262.58,152A19.23,19.23,0,0,1,61.9,465.47H42.68V234.86H61.9a19.24,19.24,0,0,1,19.21,19.22ZM282.46,645.77l24.81-29.63A99,99,0,0,0,317.56,601q25.76,18.72,49.75,34.92a59.94,59.94,0,0,1,2.07,15.24V930.24a57.44,57.44,0,0,0-38.05,50.34L302.45,923a61.58,61.58,0,0,0-34.35-30.52L256.65,869.4a203.9,203.9,0,0,1-21.79-91.82,207,207,0,0,1,47.6-131.81ZM868.67,980.58a57.41,57.41,0,0,0-38-50.34V880.66q38.53,14.91,76.68,28a62.23,62.23,0,0,0-9.69,14.24Zm-76.49-53.87h-173v38.43H811.4a19.25,19.25,0,0,1,19.22,19.22v56.33a23.76,23.76,0,0,1-7.69,1.32H377.07a23.26,23.26,0,0,1-7.69-1.34V984.36a19.25,19.25,0,0,1,19.22-19.22H580.78V926.71h-173V663A2231.18,2231.18,0,0,0,792.18,865.35Zm159.34,209.8a24.41,24.41,0,0,1-24,20.81H272.53a24.38,24.38,0,0,1-24-20.77l-26.06-183a18,18,0,0,1-.07-2.84,24.05,24.05,0,0,1,24-24,13.36,13.36,0,0,1,3.15.27l1.36.26a23.29,23.29,0,0,1,17.15,12.89l53,105.69a60.44,60.44,0,0,0,17.12,21,62.52,62.52,0,0,0,38.86,13.61H822.93a62.46,62.46,0,0,0,38.62-13.39,60.91,60.91,0,0,0,17.38-21.22L932,940c5.11-10.34,16.87-15.48,28.9-12.25a24.17,24.17,0,0,1,16.51,26.61Zm21.23-246.79c-50.46-15.65-102.34-34.18-154.18-55A2191.46,2191.46,0,0,1,397.71,610.13C373.33,594,348.21,576.21,321,556c-14.39-10.74-28.42-21.66-42.45-32.59L119.55,398.48V312.83l122.75,96.4,10.45,8.33c56,44.13,115.44,86.28,176.6,125.23a2229.63,2229.63,0,0,0,374.9,193.08c57,22.87,115.61,43.57,174,61.42,33.23,10.36,67.57,20,102.18,28.91v94.93c-37.7-9.9-73.85-20.39-107.7-31.41Zm184.57,94.64H1138.1a19.24,19.24,0,0,1-19.21-19.22V773a19.24,19.24,0,0,1,19.21-19.22h19.22Zm0,0"/></svg>