<svg id="Layer_1" data-name="Layer 1" xmlns="http://www.w3.org/2000/svg" xmlns:xlink="http://www.w3.org/1999/xlink" viewBox="0 0 1200 1200"><defs><style>.cls-1{fill:none;}.cls-2{clip-path:url(#clip-path);}</style><clipPath id="clip-path"><rect class="cls-1" x="1.05" y="1.85" width="1197.89" height="1196.31"/></clipPath></defs><g class="cls-2"><rect x="248.98" y="889.46" width="41.31" height="38.59"/><path d="M1156,146.51,780.92,6.26c-36.46-12.64-74.73,4.4-88.09,35.8l-26.21,61.06A62.2,62.2,0,0,0,662,126.21a61,61,0,0,0,11.73,35.46L613.36,291.36H586.68L526.34,161.73a60.84,60.84,0,0,0,11.77-35.52,63.45,63.45,0,0,0-4.79-23.59l-26-60.52c-13.41-31.49-50-49.17-88.61-35.68L44.15,146.5c-26.1,9.67-43,32.92-43,59.2A63.54,63.54,0,0,0,6,229.3l26,60.52c9.8,23,32.58,38.18,58.77,39.82L279.45,735.12H228.34c-34.15,0-62,26-62,57.87a54.69,54.69,0,0,0,18.05,40.67,60,60,0,0,0,12.87,9.12c-18.67,18-30.29,42.46-30.29,69.45A91.93,91.93,0,0,0,169.56,934l62.87,264.2H884.82l89.64-349.06c80.74-10.3,141.88-74.62,141.88-152.57,0-66.11-45.16-124-110-145.35l103.05-221.53c26.19-1.64,49-16.78,58.79-39.77l26.19-61.05A63.05,63.05,0,0,0,1199,205.7c0-26.28-16.88-49.53-42.94-59.19ZM673.58,258.83l63,24.83,16-35.55-62.6-24.68,17.31-37.14,360.88,134.94-20.09,43.19L791,263.32l-16,35.59,256.67,100.9-20.28,43.57L765,346.53c-1.54-30.63-28.49-55.17-61.65-55.17h-44.9ZM455.89,766.92c23.09-32,61.55-51.1,102.86-51.1s79.79,19.1,102.87,51.1a109.86,109.86,0,0,1,0,129.31c-23.08,32-61.54,51.1-102.87,51.1-68.33,0-123.9-51.91-123.9-115.75a109.84,109.84,0,0,1,21-64.66Zm40.91-89.69c-24.18,0-45.58-12.67-55.92-33.25-.88-1.72-1.3-3.56-2-5.33H678.82c-8.49,22.5-31.17,38.58-58.09,38.58Zm-219-42.48,79.5-31.2c7,15.21,20.9,26.84,37.9,32,.39,2.1.77,4.21,1.3,6.27L299,680.26ZM703.32,330c11.38,0,20.65,8.67,20.65,19.29V445.7H538.11c-34.16,0-62,26-62,57.89a54.62,54.62,0,0,0,18.05,40.66,63,63,0,0,0,43.91,17.21H724v19.3c0,10.64-9.27,19.3-20.65,19.3H414.2c-11.37,0-20.65-8.66-20.65-19.3V483.14A53.85,53.85,0,0,1,400,457.41L451,362c10.49-19.45,32.28-32,55.5-32Zm88,405.17H687.45A159.49,159.49,0,0,0,658.81,709c28.31-10.42,50.12-32.17,59.54-58.83l68.95,27.1a138.32,138.32,0,0,0-1.38,19.24,145.34,145.34,0,0,0,5.39,38.6ZM724,522.88H538.11a20.82,20.82,0,0,1-14.7-5.89,17.93,17.93,0,0,1-5.95-13.4c0-10.63,9.28-19.3,20.65-19.3H724ZM363.16,440.06a89.83,89.83,0,0,0-10.23,32.32l-127.44,50L205.21,478.8,379,410.44Zm-10.92,74.43v49.22l-90.92,35.68L242,557.76ZM711.54,773.7h96.83a156.06,156.06,0,0,0,35.84,40.07L813,889.46H711.54a141,141,0,0,0,0-115.76Zm86.4-134.09-49.49-19.45c10.35-10.36,16.82-24.15,16.82-39.4V573l60.32,23.77a151.21,151.21,0,0,0-27.65,42.85ZM860,568.44l-94.75-37.33V481.9l158.59,62.35A167.49,167.49,0,0,0,860,568.44Zm114.65-46.06L765.27,440V388.52L995,478.82Zm-468.15-231c-38.69,0-74.95,20.9-92.44,53.37l-6.78,12.69-218.57,86-20.28-43.55,358.11-141,15.16,32.53ZM70.32,275.48,44.5,215.38a26.64,26.64,0,0,1-2-9.68c0-10.38,6.66-19.55,17-23.39L433.57,42.44C449.39,37,463.68,44,469,56.43l25.82,60.1a26.66,26.66,0,0,1,2,9.68,24.18,24.18,0,0,1-8.63,18.43,27.48,27.48,0,0,1-8.3,5L427,169.27l15.28,35.84,50.51-18.8,17.39,37.36L152,364.46l-20.1-43.19L401.21,220.54l-15.35-35.81L105.46,289.57a38.91,38.91,0,0,1-4.16,1.22c-13,1.67-26.15-3.94-31-15.31ZM315.43,715.67l98.73-38.9a100.71,100.71,0,0,0,44.63,32.16,160.45,160.45,0,0,0-28.73,26.19H324.48Zm536.81,443.89H265.55l-55.69-234a56.18,56.18,0,0,1-1.58-13.31c0-33.82,29.47-61.36,65.67-61.36,26.65,0,50.44,14.8,60.66,37.72l86.47,193.8H541.91c8.55,22.41,31.26,38.59,58.15,38.59,34.16,0,62-26,62-57.88a50.47,50.47,0,0,0-.77-7l72-33.61L714.72,988l-71.78,33.54a63.91,63.91,0,0,0-42.88-16.29c-26.89,0-49.6,16.19-58.15,38.58H448.6L372.75,873.73c-16.65-37.33-55.4-61.44-98.77-61.44H228.34a20.81,20.81,0,0,1-14.7-5.9,17.93,17.93,0,0,1-5.95-13.4c0-10.63,9.28-19.29,20.65-19.29H406a145,145,0,0,0-12.43,57.88c0,85.11,74.11,154.34,165.2,154.34,50.44,0,97.48-21.52,128.7-57.87h154L940.65,687a16.09,16.09,0,0,1,15-9.72c8.88,0,16.1,6.75,16.1,15.24a14.52,14.52,0,0,1-.45,3.4ZM579.41,1063.1c0-10.63,9.27-19.3,20.65-19.3s20.65,8.67,20.65,19.3-9.26,19.29-20.65,19.29-20.65-8.66-20.65-19.29ZM1075,696.52c0,53-37.77,97.59-90,111.16l26.45-103a51.32,51.32,0,0,0,1.56-12.4c0-29.58-25.76-53.63-57.41-53.63-23.79,0-44.79,13.44-53.57,34.36l-41.9,101.82a115,115,0,0,1-21.13-28.66,109.1,109.1,0,0,1-11.85-49.65,105.76,105.76,0,0,1,3.57-27.2c6.44-25.36,22-48,44.13-64,21.79-16.09,48.14-24.6,76.21-24.6a121.43,121.43,0,0,1,23.57,2.17c58.14,10.41,100.33,58.2,100.33,113.59Zm80.79-481.6-26,60.64c-4.08,9.59-13.89,15.8-25,15.8a44.08,44.08,0,0,1-4.84-.41,34.5,34.5,0,0,1-5-1.29l-374.5-140a27.82,27.82,0,0,1-8.45-5l-.1-.1a24.06,24.06,0,0,1-8.53-18.33,26.48,26.48,0,0,1,1.81-9.22l26-60.64c4.09-9.58,13.9-15.8,25-15.8a32.14,32.14,0,0,1,9.88,1.7l374.67,140.08c10.26,3.82,16.91,13,16.91,23.37a26.45,26.45,0,0,1-1.82,9.22Zm0,0"/></g><path d="M600.06,831.58a35.81,35.81,0,0,1-4.2,16.61l37.33,16.56a72.77,72.77,0,0,0,8.18-33.17c0-42.57-37-77.18-82.62-77.18A87,87,0,0,0,523.27,762L541,796.91c28.4-12.64,59.07,7.75,59.07,34.67Zm0,0"/><path d="M558.75,908.75a87,87,0,0,0,35.51-7.64l-17.73-34.87c-28.42,12.63-59.07-7.77-59.07-34.66A35.92,35.92,0,0,1,521.65,815l-37.32-16.55a72.55,72.55,0,0,0-8.18,33.16c0,42.56,37.05,77.17,82.6,77.17Zm0,0"/><rect x="641.37" y="368.53" width="41.3" height="38.59"/><rect x="558.75" y="368.53" width="41.31" height="38.59"/><rect x="476.15" y="368.53" width="41.31" height="38.59"/></svg>