<svg id="Layer_1" data-name="Layer 1" xmlns="http://www.w3.org/2000/svg" viewBox="0 0 1200 1200"><path d="M838.41,560.29H805.87L672.48,446a19.8,19.8,0,0,0-12.92-4.78h-174A59.23,59.23,0,0,0,432.3,474.1l-43.09,86.19h-47.3A39.7,39.7,0,0,0,302.21,600v99.26a19.86,19.86,0,0,0,19.85,19.86h43.36a59.2,59.2,0,0,0,111.81,0H722.77a59.2,59.2,0,0,0,111.81,0h43.36a19.86,19.86,0,0,0,19.85-19.86V619.85a19.87,19.87,0,0,0-5.78-14l-39.52-39.7a19.88,19.88,0,0,0-14.08-5.85Zm-93.48,0H600V480.88h52.22ZM467.82,491.86a19.75,19.75,0,0,1,17.74-11h74.73v79.41H433.59ZM421.33,719.12a19.86,19.86,0,1,1,19.85-19.86,19.87,19.87,0,0,1-19.85,19.86Zm357.34,0a19.86,19.86,0,1,1,19.86-19.86,19.87,19.87,0,0,1-19.86,19.86Zm79.42-39.71H834.58a59.2,59.2,0,0,0-111.81,0H477.23a59.2,59.2,0,0,0-111.81,0H341.91V600H830.17l27.92,28Zm0,0"/><path d="M1178.18,481l-120.9-15.11a473.72,473.72,0,0,0-39.18-94.39L1093,275.27a19.84,19.84,0,0,0-1.63-26.22L951,108.67A19.84,19.84,0,0,0,924.73,107L828.46,181.9a473.72,473.72,0,0,0-94.39-39.18L719,21.82a19.86,19.86,0,0,0-19.7-17.4H500.74A19.86,19.86,0,0,0,481,21.82l-15.11,120.9a473.72,473.72,0,0,0-94.39,39.18L275.27,107a19.84,19.84,0,0,0-26.22,1.63L108.67,249.05A19.84,19.84,0,0,0,107,275.27l74.86,96.27a473.72,473.72,0,0,0-39.18,94.39L21.82,481a19.86,19.86,0,0,0-17.4,19.7V699.26A19.86,19.86,0,0,0,21.82,719l120.9,15.11a473.72,473.72,0,0,0,39.18,94.39L107,924.73A19.84,19.84,0,0,0,108.67,951l140.38,140.38a19.84,19.84,0,0,0,26.22,1.63l96.27-74.86a473.72,473.72,0,0,0,94.39,39.18L481,1178.18a19.86,19.86,0,0,0,19.7,17.4H699.26a19.86,19.86,0,0,0,19.7-17.4l15.11-120.9a473.72,473.72,0,0,0,94.39-39.18L924.73,1093a19.84,19.84,0,0,0,26.22-1.63L1091.33,951a19.84,19.84,0,0,0,1.63-26.22l-74.86-96.27a473.72,473.72,0,0,0,39.18-94.39L1178.18,719a19.86,19.86,0,0,0,17.4-19.7V500.74a19.86,19.86,0,0,0-17.4-19.7Zm-22.3,200.7-116.64,14.59A19.83,19.83,0,0,0,1022.49,711,434.6,434.6,0,0,1,977.2,820.16a19.85,19.85,0,0,0,1.45,22.22l72.25,92.89L935.27,1050.86l-92.89-72.25a19.88,19.88,0,0,0-22.22-1.41A434.71,434.71,0,0,1,711,1022.53a19.82,19.82,0,0,0-14.64,16.75l-14.59,116.6H518.26l-14.59-116.64A19.83,19.83,0,0,0,489,1022.49,434.6,434.6,0,0,1,379.84,977.2a19.85,19.85,0,0,0-22.22,1.45l-92.89,72.21L149.14,935.27l72.25-92.89a19.88,19.88,0,0,0,1.41-22.22A434.71,434.71,0,0,1,177.47,711a19.82,19.82,0,0,0-16.75-14.64L44.12,681.74V518.26l116.64-14.59A19.83,19.83,0,0,0,177.51,489,434.6,434.6,0,0,1,222.8,379.84a19.87,19.87,0,0,0-1.45-22.22l-72.21-92.89L264.73,149.14l92.89,72.25a19.88,19.88,0,0,0,22.22,1.41A434.71,434.71,0,0,1,489,177.47a19.82,19.82,0,0,0,14.64-16.75l14.59-116.6H681.74l14.59,116.64A19.83,19.83,0,0,0,711,177.51,434.6,434.6,0,0,1,820.16,222.8a19.85,19.85,0,0,0,22.22-1.45l92.89-72.21,115.59,115.59-72.25,92.89a19.88,19.88,0,0,0-1.41,22.22A434.71,434.71,0,0,1,1022.53,489a19.82,19.82,0,0,0,16.75,14.64l116.6,14.59Zm0,0"/><rect x="580.15" y="123.53" width="39.71" height="39.71"/><path d="M249,277.12l28.07-28.07,28.06,28.07-28.06,28.07Zm0,0"/><rect x="123.53" y="580.15" width="39.71" height="39.71"/><path d="M248.92,922.81,277,894.74l28.07,28.07L277,950.89Zm0,0"/><rect x="580.15" y="1036.76" width="39.71" height="39.71"/><path d="M894.61,922.85l28.07-28.07,28.06,28.07-28.06,28.08Zm0,0"/><rect x="1036.76" y="580.15" width="39.71" height="39.71"/><path d="M894.68,277.21l28.07-28.07,28.07,28.07-28.07,28.08Zm0,0"/><path d="M600,203A397.06,397.06,0,1,0,997.05,600c-.24-219.18-177.87-396.81-397-397Zm0,754.4A357.34,357.34,0,1,1,957.35,600C957.12,797.26,797.26,957.12,600,957.35Zm0,0"/></svg>