<svg id="Layer_1" data-name="Layer 1" xmlns="http://www.w3.org/2000/svg" viewBox="0 0 1200 1200"><path d="M849.84,959.33c-31.78,0-57.65,30.23-57.65,67.37s25.87,67.38,57.65,67.38,57.66-30.23,57.66-67.38-25.87-67.37-57.66-67.37Zm0,89.83c-10.58,0-19.22-10.06-19.22-22.46s8.64-22.45,19.22-22.45,19.22,10.06,19.22,22.45-8.63,22.46-19.22,22.46Zm0,0"/><path d="M292.5,959.33c-31.78,0-57.66,30.23-57.66,67.37s25.88,67.38,57.66,67.38,57.66-30.23,57.66-67.38-25.88-67.37-57.66-67.37Zm0,89.83c-10.58,0-19.22-10.06-19.22-22.46s8.64-22.45,19.22-22.45,19.22,10.06,19.22,22.45-8.63,22.46-19.22,22.46Zm0,0"/><path d="M1138.12,734.75h-3.48a66.61,66.61,0,0,0-13.29-24.86c-10.79-13-25.3-20.06-40.88-20.06h-31.18l-10.78-11.09c-9.26-9.46-18.93-18.63-28.77-27.31C951.2,600,882.94,563.93,811.39,545.9v-167L758.1,368.43a466.57,466.57,0,0,0-30.39-85.81L759,231.28l-131.78-154-44,36.6a335.57,335.57,0,0,0-73.43-35.51L501,16.09H314.67l-8.91,62.27a335.12,335.12,0,0,0-73.43,35.51l-44-36.6-131.78,154L87.9,282.6a465.83,465.83,0,0,0-30.39,85.81L4.22,378.85v217.7L57.51,607A465.83,465.83,0,0,0,87.9,692.77L56.57,744.11,90,783.22,48.67,794.6c-25.75,7-44.45,34.57-44.45,65.47v144.18c0,37.14,25.87,67.37,57.66,67.37H163.82c16.65,66.07,68.31,112.29,128.68,112.29s112.22-46.39,128.73-112.29H721.16c16.65,66.07,68.31,112.29,128.68,112.29s112.22-46.39,128.74-112.29h159.54c31.79,0,57.66-30.23,57.66-67.37V802.12c0-37.14-25.87-67.37-57.66-67.37Zm19.22,67.37V936.87h-96.09V905.65a25.14,25.14,0,0,1,3.3-12.5l64.66-113.48h8.91c10.59,0,19.22,10.06,19.22,22.45Zm-144.16-89.61,21.59,22.24h45.7c5.13,0,9.86,2.31,13.68,6.87a22.47,22.47,0,0,1,4.92,9.89L1032.71,868a74.38,74.38,0,0,0-9.9,37.63v31.22h-63c-21.26-35.57-54.17-59.42-90.76-65.64V732a1000.6,1000.6,0,0,0,125-37.59c6.43,5.89,12.89,11.78,19.08,18.09ZM739.87,936.87H402.15c-13.37-22.3-31.22-40-52-51.45V849.06c0-32.45,8.12-64.47,23.23-91.85H648.23c60.47,0,121.68-6,182.39-17.34V871.23C794,877.45,761,901.34,739.87,936.87ZM273,732.91C201,678.82,158,588,158,487.71c0-161,112.08-292,249.84-292s249.85,131,249.85,292a345.69,345.69,0,0,1-3.79,48.64A406.22,406.22,0,0,0,613.65,543a287.89,287.89,0,0,0,5.57-55.27c0-136.21-94.85-247-211.41-247-48.5,0-96,19.82-133.8,55.78l24.29,34.84c31.39-29.89,69.24-45.7,109.51-45.7,95.36,0,173,90.66,173,202.12a235.23,235.23,0,0,1-9.84,66.77,448.06,448.06,0,0,0-59,23.17c-53,25.56-101.32,61.65-143.89,106.46C290.39,663,234.84,582.06,234.84,487.71c0-47,13.54-91.27,39.12-128l-29.82-28.38c-30.78,44.17-47.73,99.71-47.73,156.35,0,103.26,54.44,193.38,133.37,229.57Zm514.64-147c59,12.39,116,38.49,166.8,75.77a967,967,0,0,1-108,29.81,970.52,970.52,0,0,1-198.22,20.77H558a76.4,76.4,0,0,0,3.54-22.46c0-18.21-6.09-35.14-16.79-47.31a54.6,54.6,0,0,0-27.72-18.13c3.21-1.64,6.26-3.62,9.52-5.19a412.42,412.42,0,0,1,64.09-24.66A378,378,0,0,1,672.53,579a327.13,327.13,0,0,1,33-1.5,404.21,404.21,0,0,1,82.11,8.4ZM442.54,683.41a127.34,127.34,0,0,1,61.37-16c5.13,0,9.86,2.32,13.68,6.88a23.44,23.44,0,0,1,5.54,15.58c0,12.39-8.64,22.46-19.22,22.46H405.66a146,146,0,0,1,36.88-28.88ZM106.75,739.27l26.87-44.08-6.42-12.58A416.53,416.53,0,0,1,91.45,581.68l-3.07-14.25-45.72-8.91V416.88L88.38,408l3.07-14.25A416.53,416.53,0,0,1,127.2,292.79l6.42-12.6-26.87-44.06L192.52,135.9l37.74,31.37L241,159.78A298.81,298.81,0,0,1,327.36,118l12.16-3.6L347.22,61h121.2l7.65,53.45,12.17,3.6a299,299,0,0,1,86.36,41.74l10.75,7.51,37.73-31.38,85.77,100.23L682,280.22l6.42,12.59a416.08,416.08,0,0,1,35.74,100.93L727.23,408,773,416.9V538.41c-22.26-3.47-44.78-5.78-67.45-5.78-4.29,0-8.27.15-12.31.27a398.6,398.6,0,0,0,2.88-45.19c0-185.75-129.32-336.87-288.28-336.87S119.53,302,119.53,487.71c0,101.75,38.27,195.27,104,258.8L134,771.13ZM57.46,838.34l269.35-74.1a245.84,245.84,0,0,0-15.09,84.82v22.37a114.46,114.46,0,0,0-19.22-1.93c-44.09,0-85.16,25.71-110,67.37H42.66v-76.8c0-10.25,6.21-19.39,14.8-21.73Zm4.42,188.36c-10.59,0-19.22-10.06-19.22-22.45V981.79H163.75A180.69,180.69,0,0,0,158,1026.7Zm325.25,18.58c-7.7,54.3-47.48,93.72-94.63,93.72s-86.93-39.42-94.69-94.19a113.4,113.4,0,0,1-1.4-18.11,123.11,123.11,0,0,1,13-56.16c17-34.63,48.89-56.13,83.09-56.13A81.54,81.54,0,0,1,324.61,921c21.42,8.74,39.52,26.31,51,49.54l.09.2a122.86,122.86,0,0,1,12.89,55.94,115.44,115.44,0,0,1-1.46,18.58ZM427,1026.7a180.69,180.69,0,0,0-5.78-44.91H721.09a181.16,181.16,0,0,0-5.78,44.91Zm517.44,18.58c-7.7,54.3-47.48,93.72-94.63,93.72s-86.92-39.42-94.68-94.19a112.24,112.24,0,0,1-1.41-18.11,123.12,123.12,0,0,1,13-56.16c17-34.63,48.88-56.13,83.08-56.13s66.06,21.5,83.09,56.13l.11.22a122.87,122.87,0,0,1,12.9,55.94,115.46,115.46,0,0,1-1.47,18.58Zm193.65-18.58H984.37a181.63,181.63,0,0,0-5.78-44.91h178.75v22.46c0,12.39-8.63,22.45-19.22,22.45Zm0,0"/></svg>