<svg id="Layer_1" data-name="Layer 1" xmlns="http://www.w3.org/2000/svg" viewBox="0 0 1200 1200"><path d="M1131.43,653.06l-156.5-36.13L888,473.79a118.55,118.55,0,0,0-14.09-20.68A424.41,424.41,0,0,0,887.58,346.3c0-188.49-120.4-341.81-268.41-341.81S350.76,157.81,350.76,346.3a421.35,421.35,0,0,0,16.85,118L235,630.35c-5.54,6.92-12.73,11.7-20.12,13.46L68.55,677.5c-36.43,8.5-62.88,48.88-62.88,96V956.66c0,53.86,34.39,97.66,76.69,97.66h97.39C189.1,1137,245,1200.8,312.42,1200.8S435.74,1137,445.09,1054.32h329c9.36,82.67,65.21,146.48,132.67,146.48s123.32-63.81,132.67-146.48h78.22c42.3,0,76.69-43.8,76.69-97.66V749.13c0-47.17-26.45-87.55-62.9-96.07ZM619.17,53.32c126.87,0,230.07,131.42,230.07,293a361.34,361.34,0,0,1-15.59,106A307,307,0,0,1,791,540.82c-43.46,62.55-106.07,98.45-171.8,98.45-69.9,0-135.19-39.77-179.1-109.08a314,314,0,0,1-32.54-69.14l0-.13A357.42,357.42,0,0,1,389.11,346.3c0-161.56,103.2-293,230.06-293ZM433.57,956.66H580.83v48.83H445.11a204,204,0,0,0-11.54-48.83Zm-27.65-48.83c-20.09-25.17-45.92-41.46-73.74-46.73,2.58-60.3,15.57-119.41,37.94-173H580.83V907.83Zm20.61-324a291,291,0,0,0,54.56,55.42h-87c.93-1.63,1.75-3.27,2.68-4.89ZM619.17,688.1H849.24V786c-31.64,1.74-62.18,14.6-88.77,37.41-25,21.48-44.82,50.44-57.92,84.45H619.17ZM757,639.27a285.08,285.08,0,0,0,46.37-45l26.6,45ZM75.42,725.55l59.12-13.62-3.1,15.7c-4.78,24.49-18.88,43.94-37.67,52L44,800.74V773.55c0-23.58,13.21-43.78,31.41-48ZM44,956.66V852.22L106,826c31.33-13.52,54.73-45.87,62.67-86.47L176,702.41l45.82-10.56c14.86-3.56,29.07-13,40-26.63L384.45,511.63a363.39,363.39,0,0,0,16.75,33.92L366,605.21c-9,15.45-17.05,31-24,46.29-28.91,64.07-45.34,136-48.15,209.34C235,871.3,188.26,930.56,179.77,1005.49H82.36c-21.15,0-38.35-21.9-38.35-48.83ZM312.42,1152c-52.85,0-95.86-54.76-95.86-122.07s43-122.07,95.86-122.07c27.28,0,53.2,14.79,71.31,40.82,15.82,22.24,24.55,51.13,24.55,81.25,0,67.31-43,122.07-95.86,122.07Zm594.33,0c-52.85,0-95.86-54.76-95.86-122.07s43-122.07,95.86-122.07,95.86,54.76,95.86,122.07S959.61,1152,906.75,1152ZM945.1,834.59A27.33,27.33,0,0,1,951,817.18c3.43-4.49,8.17-7,13.29-7h38.34c10.58,0,19.17,10.94,19.17,24.42a27.32,27.32,0,0,1-5.88,17.4,16.66,16.66,0,0,1-13.29,7H964.27c-10.58,0-19.17-10.94-19.17-24.41Zm172.54,170.9h-78.22c-4.3-38-18.35-72-38.93-97.66h2.12c15.57,0,30-7.71,40.4-21.31,11.06-13.7,17.12-32.11,17.12-51.93,0-40.38-25.81-73.25-57.52-73.25H964.27c-15.57,0-30,7.71-40.39,21.32-11.07,13.7-17.13,32.1-17.13,51.93a90.17,90.17,0,0,0,3.59,24.62c-1.21,0-2.38-.21-3.59-.21-67.46,0-123.31,63.81-132.67,146.49H619.17V956.66H728.05l4.81-15.4c9.82-31.5,26.79-58.26,49.09-77.4s48.13-29.27,74.77-29.27h30.86V655.53l-57.86-98a354.22,354.22,0,0,0,27.75-54.31l96.14,158.35,170.95,39.51c18.22,4.24,31.43,24.43,31.43,48v12.21h-57.52v48.83H1156V859h-57.52v48.83H1156v48.83c0,26.93-17.2,48.83-38.35,48.83Zm0,0"/><path d="M312.42,956.66c-31.71,0-57.52,32.87-57.52,73.24s25.81,73.24,57.52,73.24,57.52-32.86,57.52-73.24-25.81-73.24-57.52-73.24Zm0,97.66c-10.58,0-19.17-11-19.17-24.42s8.59-24.41,19.17-24.41,19.17,10.94,19.17,24.41-8.59,24.42-19.17,24.42Zm0,0"/><path d="M906.75,956.66c-31.7,0-57.51,32.87-57.51,73.24s25.81,73.24,57.51,73.24,57.52-32.86,57.52-73.24-25.81-73.24-57.52-73.24Zm0,97.66c-10.58,0-19.17-11-19.17-24.42s8.59-24.41,19.17-24.41,19.17,10.94,19.17,24.41-8.59,24.42-19.17,24.42Zm0,0"/><path d="M523.31,566H715c21.15,0,38.35-21.9,38.35-48.83V321.88c0-26.93-17.2-48.83-38.35-48.83V224.22c0-32.3-9.93-62.94-28.14-86.47-18.29-23-42.35-35.6-67.72-35.6-52.85,0-95.86,54.77-95.86,122.07v48.83c-21.14,0-38.34,21.9-38.34,48.83V517.2c0,26.93,17.2,48.83,38.34,48.83Zm38.35-341.81c0-40.37,25.81-73.24,57.51-73.24,15.24,0,29.73,7.64,40.61,21.29,10.91,14.09,16.91,32.55,16.91,51.95v48.83h-115Zm-38.35,97.66H715V517.2H638.34V444H600V517.2H523.31Zm0,0"/><rect x="600" y="346.3" width="38.34" height="48.83"/><rect x="465.8" y="736.93" width="76.69" height="48.83"/><rect x="734.2" y="736.93" width="76.69" height="48.83"/></svg>